STARTFONT 2.1
COMMENT 
COMMENT This file has been produced by ttf2bdf written by Subhabrata Biswas
COMMENT 
COMMENT For comments, questions, bug reports, send a mail to
COMMENT                                           subhabrata.biswas@usa.net
COMMENT 
FONT -*-QuinqueFive-Medium-R-Normal--5-40-96-96-c-6--fontspecific
SIZE 4 96 96
FONTBOUNDINGBOX 5 6 0 -1
STARTPROPERTIES 15
FOUNDRY "Misc"
FAMILY_NAME "QuinqueFive"
WEIGHT_NAME "Medium"
SLANT "R"
SETWIDTH_NAME "Normal"
PIXEL_SIZE 3
POINT_SIZE 40
RESOLUTION_X 96
RESOLUTION_Y 96
SPACING "C"
CHARSET_ENCODING "fontspecific"
FONT_ASCENT 5
FONT_DESCENT 1
DEFAULT_CHAR 31
COPYRIGHT "You may wish to put your copyright here"
ENDPROPERTIES
CHARS 226
STARTCHAR C0030
ENCODING 30
SWIDTH 1125 0
DWIDTH 6 0
BBX 5 5 0 -1
BITMAP
F8
F8
F8
F8
F8
ENDCHAR
STARTCHAR C0031
ENCODING 31
SWIDTH 1125 0
DWIDTH 6 0
BBX 5 5 0 -1
BITMAP
F8
F8
F8
F8
F8
ENDCHAR
STARTCHAR C0032- 
ENCODING 32
SWIDTH 1125 0
DWIDTH 6 0
BBX 1 1 0 -1
BITMAP
00
ENDCHAR
STARTCHAR C0033-!
ENCODING 33
SWIDTH 1125 0
DWIDTH 6 0
BBX 1 5 2 -1
BITMAP
80
80
80
00
80
ENDCHAR
STARTCHAR C0034-"
ENCODING 34
SWIDTH 1125 0
DWIDTH 6 0
BBX 3 2 1 2
BITMAP
A0
A0
ENDCHAR
STARTCHAR C0035-#
ENCODING 35
SWIDTH 1125 0
DWIDTH 6 0
BBX 5 5 0 -1
BITMAP
50
F8
50
F8
50
ENDCHAR
STARTCHAR C0036-$
ENCODING 36
SWIDTH 1125 0
DWIDTH 6 0
BBX 5 5 0 -1
BITMAP
78
A0
70
28
F0
ENDCHAR
STARTCHAR C0037-%
ENCODING 37
SWIDTH 1125 0
DWIDTH 6 0
BBX 5 5 0 -1
BITMAP
88
10
20
40
88
ENDCHAR
STARTCHAR C0038-&
ENCODING 38
SWIDTH 1125 0
DWIDTH 6 0
BBX 5 5 0 -1
BITMAP
60
80
68
90
68
ENDCHAR
STARTCHAR C0039-'
ENCODING 39
SWIDTH 1125 0
DWIDTH 6 0
BBX 1 2 2 2
BITMAP
80
80
ENDCHAR
STARTCHAR C0040-(
ENCODING 40
SWIDTH 1125 0
DWIDTH 6 0
BBX 3 5 1 -1
BITMAP
60
80
80
80
60
ENDCHAR
STARTCHAR C0041-)
ENCODING 41
SWIDTH 1125 0
DWIDTH 6 0
BBX 3 5 1 -1
BITMAP
C0
20
20
20
C0
ENDCHAR
STARTCHAR C0042-*
ENCODING 42
SWIDTH 1125 0
DWIDTH 6 0
BBX 3 3 1 1
BITMAP
A0
40
A0
ENDCHAR
STARTCHAR C0043-+
ENCODING 43
SWIDTH 1125 0
DWIDTH 6 0
BBX 5 5 0 -1
BITMAP
20
20
F8
20
20
ENDCHAR
STARTCHAR C0044-,
ENCODING 44
SWIDTH 1125 0
DWIDTH 6 0
BBX 2 2 1 -1
BITMAP
40
80
ENDCHAR
STARTCHAR C0045--
ENCODING 45
SWIDTH 1125 0
DWIDTH 6 0
BBX 5 1 0 1
BITMAP
F8
ENDCHAR
STARTCHAR C0046-.
ENCODING 46
SWIDTH 1125 0
DWIDTH 6 0
BBX 1 1 2 -1
BITMAP
80
ENDCHAR
STARTCHAR C0047-/
ENCODING 47
SWIDTH 1125 0
DWIDTH 6 0
BBX 5 5 0 -1
BITMAP
08
10
20
40
80
ENDCHAR
STARTCHAR C0048-0
ENCODING 48
SWIDTH 1125 0
DWIDTH 6 0
BBX 5 5 0 -1
BITMAP
F8
88
88
88
F8
ENDCHAR
STARTCHAR C0049-1
ENCODING 49
SWIDTH 1125 0
DWIDTH 6 0
BBX 5 5 0 -1
BITMAP
60
A0
20
20
F8
ENDCHAR
STARTCHAR C0050-2
ENCODING 50
SWIDTH 1125 0
DWIDTH 6 0
BBX 5 5 0 -1
BITMAP
F0
08
30
40
F8
ENDCHAR
STARTCHAR C0051-3
ENCODING 51
SWIDTH 1125 0
DWIDTH 6 0
BBX 5 5 0 -1
BITMAP
F8
08
78
08
F8
ENDCHAR
STARTCHAR C0052-4
ENCODING 52
SWIDTH 1125 0
DWIDTH 6 0
BBX 5 5 0 -1
BITMAP
88
88
F8
08
08
ENDCHAR
STARTCHAR C0053-5
ENCODING 53
SWIDTH 1125 0
DWIDTH 6 0
BBX 5 5 0 -1
BITMAP
F8
80
F8
08
F8
ENDCHAR
STARTCHAR C0054-6
ENCODING 54
SWIDTH 1125 0
DWIDTH 6 0
BBX 5 5 0 -1
BITMAP
F8
80
F8
88
F8
ENDCHAR
STARTCHAR C0055-7
ENCODING 55
SWIDTH 1125 0
DWIDTH 6 0
BBX 5 5 0 -1
BITMAP
F8
08
10
20
40
ENDCHAR
STARTCHAR C0056-8
ENCODING 56
SWIDTH 1125 0
DWIDTH 6 0
BBX 5 5 0 -1
BITMAP
F8
88
F8
88
F8
ENDCHAR
STARTCHAR C0057-9
ENCODING 57
SWIDTH 1125 0
DWIDTH 6 0
BBX 5 5 0 -1
BITMAP
F8
88
F8
08
F8
ENDCHAR
STARTCHAR C0058-:
ENCODING 58
SWIDTH 1125 0
DWIDTH 6 0
BBX 1 3 2 0
BITMAP
80
00
80
ENDCHAR
STARTCHAR C0059-;
ENCODING 59
SWIDTH 1125 0
DWIDTH 6 0
BBX 2 4 1 -1
BITMAP
40
00
40
80
ENDCHAR
STARTCHAR C0060-<
ENCODING 60
SWIDTH 1125 0
DWIDTH 6 0
BBX 5 5 0 -1
BITMAP
18
60
80
60
18
ENDCHAR
STARTCHAR C0061-=
ENCODING 61
SWIDTH 1125 0
DWIDTH 6 0
BBX 5 3 0 0
BITMAP
F8
00
F8
ENDCHAR
STARTCHAR C0062->
ENCODING 62
SWIDTH 1125 0
DWIDTH 6 0
BBX 5 5 0 -1
BITMAP
C0
30
08
30
C0
ENDCHAR
STARTCHAR C0063-?
ENCODING 63
SWIDTH 1125 0
DWIDTH 6 0
BBX 3 5 1 -1
BITMAP
E0
20
40
00
40
ENDCHAR
STARTCHAR C0064-@
ENCODING 64
SWIDTH 1125 0
DWIDTH 6 0
BBX 5 5 0 -1
BITMAP
70
88
A8
98
40
ENDCHAR
STARTCHAR C0065-A
ENCODING 65
SWIDTH 1125 0
DWIDTH 6 0
BBX 5 5 0 -1
BITMAP
70
88
88
F8
88
ENDCHAR
STARTCHAR C0066-B
ENCODING 66
SWIDTH 1125 0
DWIDTH 6 0
BBX 5 5 0 -1
BITMAP
F0
88
F0
88
F0
ENDCHAR
STARTCHAR C0067-C
ENCODING 67
SWIDTH 1125 0
DWIDTH 6 0
BBX 5 5 0 -1
BITMAP
78
80
80
80
78
ENDCHAR
STARTCHAR C0068-D
ENCODING 68
SWIDTH 1125 0
DWIDTH 6 0
BBX 5 5 0 -1
BITMAP
F0
88
88
88
F0
ENDCHAR
STARTCHAR C0069-E
ENCODING 69
SWIDTH 1125 0
DWIDTH 6 0
BBX 5 5 0 -1
BITMAP
F8
80
F0
80
F8
ENDCHAR
STARTCHAR C0070-F
ENCODING 70
SWIDTH 1125 0
DWIDTH 6 0
BBX 5 5 0 -1
BITMAP
F8
80
F0
80
80
ENDCHAR
STARTCHAR C0071-G
ENCODING 71
SWIDTH 1125 0
DWIDTH 6 0
BBX 5 5 0 -1
BITMAP
78
80
B8
88
78
ENDCHAR
STARTCHAR C0072-H
ENCODING 72
SWIDTH 1125 0
DWIDTH 6 0
BBX 5 5 0 -1
BITMAP
88
88
F8
88
88
ENDCHAR
STARTCHAR C0073-I
ENCODING 73
SWIDTH 1125 0
DWIDTH 6 0
BBX 5 5 0 -1
BITMAP
F8
20
20
20
F8
ENDCHAR
STARTCHAR C0074-J
ENCODING 74
SWIDTH 1125 0
DWIDTH 6 0
BBX 5 5 0 -1
BITMAP
08
08
88
88
70
ENDCHAR
STARTCHAR C0075-K
ENCODING 75
SWIDTH 1125 0
DWIDTH 6 0
BBX 5 5 0 -1
BITMAP
88
90
E0
90
88
ENDCHAR
STARTCHAR C0076-L
ENCODING 76
SWIDTH 1125 0
DWIDTH 6 0
BBX 5 5 0 -1
BITMAP
80
80
80
80
F8
ENDCHAR
STARTCHAR C0077-M
ENCODING 77
SWIDTH 1125 0
DWIDTH 6 0
BBX 5 5 0 -1
BITMAP
88
D8
A8
A8
88
ENDCHAR
STARTCHAR C0078-N
ENCODING 78
SWIDTH 1125 0
DWIDTH 6 0
BBX 5 5 0 -1
BITMAP
88
C8
A8
98
88
ENDCHAR
STARTCHAR C0079-O
ENCODING 79
SWIDTH 1125 0
DWIDTH 6 0
BBX 5 5 0 -1
BITMAP
70
88
88
88
70
ENDCHAR
STARTCHAR C0080-P
ENCODING 80
SWIDTH 1125 0
DWIDTH 6 0
BBX 5 5 0 -1
BITMAP
F0
88
F0
80
80
ENDCHAR
STARTCHAR C0081-Q
ENCODING 81
SWIDTH 1125 0
DWIDTH 6 0
BBX 5 5 0 -1
BITMAP
70
88
88
90
68
ENDCHAR
STARTCHAR C0082-R
ENCODING 82
SWIDTH 1125 0
DWIDTH 6 0
BBX 5 5 0 -1
BITMAP
F0
88
F0
90
88
ENDCHAR
STARTCHAR C0083-S
ENCODING 83
SWIDTH 1125 0
DWIDTH 6 0
BBX 5 5 0 -1
BITMAP
78
80
70
08
F0
ENDCHAR
STARTCHAR C0084-T
ENCODING 84
SWIDTH 1125 0
DWIDTH 6 0
BBX 5 5 0 -1
BITMAP
F8
20
20
20
20
ENDCHAR
STARTCHAR C0085-U
ENCODING 85
SWIDTH 1125 0
DWIDTH 6 0
BBX 5 5 0 -1
BITMAP
88
88
88
88
70
ENDCHAR
STARTCHAR C0086-V
ENCODING 86
SWIDTH 1125 0
DWIDTH 6 0
BBX 5 5 0 -1
BITMAP
88
88
88
50
20
ENDCHAR
STARTCHAR C0087-W
ENCODING 87
SWIDTH 1125 0
DWIDTH 6 0
BBX 5 5 0 -1
BITMAP
88
A8
A8
A8
70
ENDCHAR
STARTCHAR C0088-X
ENCODING 88
SWIDTH 1125 0
DWIDTH 6 0
BBX 5 5 0 -1
BITMAP
88
50
20
50
88
ENDCHAR
STARTCHAR C0089-Y
ENCODING 89
SWIDTH 1125 0
DWIDTH 6 0
BBX 5 5 0 -1
BITMAP
88
88
70
20
20
ENDCHAR
STARTCHAR C0090-Z
ENCODING 90
SWIDTH 1125 0
DWIDTH 6 0
BBX 5 5 0 -1
BITMAP
F8
10
20
40
F8
ENDCHAR
STARTCHAR C0091-[
ENCODING 91
SWIDTH 1125 0
DWIDTH 6 0
BBX 3 5 1 -1
BITMAP
E0
80
80
80
E0
ENDCHAR
STARTCHAR C0092-\
ENCODING 92
SWIDTH 1125 0
DWIDTH 6 0
BBX 5 5 0 -1
BITMAP
80
40
20
10
08
ENDCHAR
STARTCHAR C0093-]
ENCODING 93
SWIDTH 1125 0
DWIDTH 6 0
BBX 3 5 1 -1
BITMAP
E0
20
20
20
E0
ENDCHAR
STARTCHAR C0094-^
ENCODING 94
SWIDTH 1125 0
DWIDTH 6 0
BBX 3 2 1 2
BITMAP
40
A0
ENDCHAR
STARTCHAR C0095-_
ENCODING 95
SWIDTH 1125 0
DWIDTH 6 0
BBX 5 1 0 -1
BITMAP
F8
ENDCHAR
STARTCHAR C0096-`
ENCODING 96
SWIDTH 1125 0
DWIDTH 6 0
BBX 2 2 1 2
BITMAP
80
40
ENDCHAR
STARTCHAR C0097-a
ENCODING 97
SWIDTH 1125 0
DWIDTH 6 0
BBX 5 5 0 -1
BITMAP
70
88
88
F8
88
ENDCHAR
STARTCHAR C0098-b
ENCODING 98
SWIDTH 1125 0
DWIDTH 6 0
BBX 5 5 0 -1
BITMAP
F0
88
F0
88
F0
ENDCHAR
STARTCHAR C0099-c
ENCODING 99
SWIDTH 1125 0
DWIDTH 6 0
BBX 5 5 0 -1
BITMAP
78
80
80
80
78
ENDCHAR
STARTCHAR C0100-d
ENCODING 100
SWIDTH 1125 0
DWIDTH 6 0
BBX 5 5 0 -1
BITMAP
F0
88
88
88
F0
ENDCHAR
STARTCHAR C0101-e
ENCODING 101
SWIDTH 1125 0
DWIDTH 6 0
BBX 5 5 0 -1
BITMAP
F8
80
F0
80
F8
ENDCHAR
STARTCHAR C0102-f
ENCODING 102
SWIDTH 1125 0
DWIDTH 6 0
BBX 5 5 0 -1
BITMAP
F8
80
F0
80
80
ENDCHAR
STARTCHAR C0103-g
ENCODING 103
SWIDTH 1125 0
DWIDTH 6 0
BBX 5 5 0 -1
BITMAP
78
80
B8
88
78
ENDCHAR
STARTCHAR C0104-h
ENCODING 104
SWIDTH 1125 0
DWIDTH 6 0
BBX 5 5 0 -1
BITMAP
88
88
F8
88
88
ENDCHAR
STARTCHAR C0105-i
ENCODING 105
SWIDTH 1125 0
DWIDTH 6 0
BBX 5 5 0 -1
BITMAP
F8
20
20
20
F8
ENDCHAR
STARTCHAR C0106-j
ENCODING 106
SWIDTH 1125 0
DWIDTH 6 0
BBX 5 5 0 -1
BITMAP
08
08
88
88
70
ENDCHAR
STARTCHAR C0107-k
ENCODING 107
SWIDTH 1125 0
DWIDTH 6 0
BBX 5 5 0 -1
BITMAP
88
90
E0
90
88
ENDCHAR
STARTCHAR C0108-l
ENCODING 108
SWIDTH 1125 0
DWIDTH 6 0
BBX 5 5 0 -1
BITMAP
80
80
80
80
F8
ENDCHAR
STARTCHAR C0109-m
ENCODING 109
SWIDTH 1125 0
DWIDTH 6 0
BBX 5 5 0 -1
BITMAP
88
D8
A8
A8
88
ENDCHAR
STARTCHAR C0110-n
ENCODING 110
SWIDTH 1125 0
DWIDTH 6 0
BBX 5 5 0 -1
BITMAP
88
C8
A8
98
88
ENDCHAR
STARTCHAR C0111-o
ENCODING 111
SWIDTH 1125 0
DWIDTH 6 0
BBX 5 5 0 -1
BITMAP
70
88
88
88
70
ENDCHAR
STARTCHAR C0112-p
ENCODING 112
SWIDTH 1125 0
DWIDTH 6 0
BBX 5 5 0 -1
BITMAP
F0
88
F0
80
80
ENDCHAR
STARTCHAR C0113-q
ENCODING 113
SWIDTH 1125 0
DWIDTH 6 0
BBX 5 5 0 -1
BITMAP
70
88
88
90
68
ENDCHAR
STARTCHAR C0114-r
ENCODING 114
SWIDTH 1125 0
DWIDTH 6 0
BBX 5 5 0 -1
BITMAP
F0
88
F0
90
88
ENDCHAR
STARTCHAR C0115-s
ENCODING 115
SWIDTH 1125 0
DWIDTH 6 0
BBX 5 5 0 -1
BITMAP
78
80
70
08
F0
ENDCHAR
STARTCHAR C0116-t
ENCODING 116
SWIDTH 1125 0
DWIDTH 6 0
BBX 5 5 0 -1
BITMAP
F8
20
20
20
20
ENDCHAR
STARTCHAR C0117-u
ENCODING 117
SWIDTH 1125 0
DWIDTH 6 0
BBX 5 5 0 -1
BITMAP
88
88
88
88
70
ENDCHAR
STARTCHAR C0118-v
ENCODING 118
SWIDTH 1125 0
DWIDTH 6 0
BBX 5 5 0 -1
BITMAP
88
88
88
50
20
ENDCHAR
STARTCHAR C0119-w
ENCODING 119
SWIDTH 1125 0
DWIDTH 6 0
BBX 5 5 0 -1
BITMAP
88
A8
A8
A8
70
ENDCHAR
STARTCHAR C0120-x
ENCODING 120
SWIDTH 1125 0
DWIDTH 6 0
BBX 5 5 0 -1
BITMAP
88
50
20
50
88
ENDCHAR
STARTCHAR C0121-y
ENCODING 121
SWIDTH 1125 0
DWIDTH 6 0
BBX 5 5 0 -1
BITMAP
88
88
70
20
20
ENDCHAR
STARTCHAR C0122-z
ENCODING 122
SWIDTH 1125 0
DWIDTH 6 0
BBX 5 5 0 -1
BITMAP
F8
10
20
40
F8
ENDCHAR
STARTCHAR C0123-{
ENCODING 123
SWIDTH 1125 0
DWIDTH 6 0
BBX 4 5 0 -1
BITMAP
70
40
C0
40
70
ENDCHAR
STARTCHAR C0124-|
ENCODING 124
SWIDTH 1125 0
DWIDTH 6 0
BBX 1 5 2 -1
BITMAP
80
80
80
80
80
ENDCHAR
STARTCHAR C0125-}
ENCODING 125
SWIDTH 1125 0
DWIDTH 6 0
BBX 4 5 1 -1
BITMAP
E0
20
30
20
E0
ENDCHAR
STARTCHAR C0126-~
ENCODING 126
SWIDTH 1125 0
DWIDTH 6 0
BBX 5 3 0 0
BITMAP
40
A8
10
ENDCHAR
STARTCHAR C0127
ENCODING 127
SWIDTH 1125 0
DWIDTH 6 0
BBX 5 5 0 -1
BITMAP
F8
F8
F8
F8
F8
ENDCHAR
STARTCHAR C0128
ENCODING 128
SWIDTH 1125 0
DWIDTH 6 0
BBX 5 5 0 -1
BITMAP
30
48
E0
48
30
ENDCHAR
STARTCHAR C0129
ENCODING 129
SWIDTH 1125 0
DWIDTH 6 0
BBX 5 5 0 -1
BITMAP
F8
F8
F8
F8
F8
ENDCHAR
STARTCHAR C0130
ENCODING 130
SWIDTH 1125 0
DWIDTH 6 0
BBX 1 2 2 -1
BITMAP
80
80
ENDCHAR
STARTCHAR C0131
ENCODING 131
SWIDTH 1125 0
DWIDTH 6 0
BBX 5 5 0 -1
BITMAP
78
40
70
40
C0
ENDCHAR
STARTCHAR C0132
ENCODING 132
SWIDTH 1125 0
DWIDTH 6 0
BBX 3 2 1 -1
BITMAP
A0
A0
ENDCHAR
STARTCHAR C0133
ENCODING 133
SWIDTH 1125 0
DWIDTH 6 0
BBX 5 1 0 -1
BITMAP
A8
ENDCHAR
STARTCHAR C0134
ENCODING 134
SWIDTH 1125 0
DWIDTH 6 0
BBX 3 5 1 -1
BITMAP
40
E0
40
40
40
ENDCHAR
STARTCHAR C0135
ENCODING 135
SWIDTH 1125 0
DWIDTH 6 0
BBX 3 5 1 -1
BITMAP
40
E0
40
E0
40
ENDCHAR
STARTCHAR C0136
ENCODING 136
SWIDTH 1125 0
DWIDTH 6 0
BBX 5 5 0 -1
BITMAP
F8
F8
F8
F8
F8
ENDCHAR
STARTCHAR C0137
ENCODING 137
SWIDTH 1125 0
DWIDTH 6 0
BBX 5 5 0 -1
BITMAP
88
10
20
48
90
ENDCHAR
STARTCHAR C0138
ENCODING 138
SWIDTH 1125 0
DWIDTH 6 0
BBX 5 5 0 -1
BITMAP
50
20
38
20
E0
ENDCHAR
STARTCHAR C0139
ENCODING 139
SWIDTH 1125 0
DWIDTH 6 0
BBX 3 5 1 -1
BITMAP
20
40
80
40
20
ENDCHAR
STARTCHAR C0140
ENCODING 140
SWIDTH 1125 0
DWIDTH 6 0
BBX 5 5 0 -1
BITMAP
78
A0
B8
A0
78
ENDCHAR
STARTCHAR C0141
ENCODING 141
SWIDTH 1125 0
DWIDTH 6 0
BBX 5 5 0 -1
BITMAP
F8
F8
F8
F8
F8
ENDCHAR
STARTCHAR C0142
ENCODING 142
SWIDTH 1125 0
DWIDTH 6 0
BBX 5 5 0 -1
BITMAP
50
20
E0
20
38
ENDCHAR
STARTCHAR C0143
ENCODING 143
SWIDTH 1125 0
DWIDTH 6 0
BBX 5 5 0 -1
BITMAP
F8
F8
F8
F8
F8
ENDCHAR
STARTCHAR C0144
ENCODING 144
SWIDTH 1125 0
DWIDTH 6 0
BBX 5 5 0 -1
BITMAP
F8
F8
F8
F8
F8
ENDCHAR
STARTCHAR C0145
ENCODING 145
SWIDTH 1125 0
DWIDTH 6 0
BBX 1 2 2 2
BITMAP
80
80
ENDCHAR
STARTCHAR C0146
ENCODING 146
SWIDTH 1125 0
DWIDTH 6 0
BBX 1 2 2 2
BITMAP
80
80
ENDCHAR
STARTCHAR C0147
ENCODING 147
SWIDTH 1125 0
DWIDTH 6 0
BBX 3 2 1 2
BITMAP
A0
A0
ENDCHAR
STARTCHAR C0148
ENCODING 148
SWIDTH 1125 0
DWIDTH 6 0
BBX 3 2 1 2
BITMAP
A0
A0
ENDCHAR
STARTCHAR C0149
ENCODING 149
SWIDTH 1125 0
DWIDTH 6 0
BBX 3 3 1 0
BITMAP
E0
E0
E0
ENDCHAR
STARTCHAR C0150
ENCODING 150
SWIDTH 1125 0
DWIDTH 6 0
BBX 5 1 0 1
BITMAP
F8
ENDCHAR
STARTCHAR C0151
ENCODING 151
SWIDTH 1125 0
DWIDTH 6 0
BBX 5 1 0 1
BITMAP
F8
ENDCHAR
STARTCHAR C0152
ENCODING 152
SWIDTH 1125 0
DWIDTH 6 0
BBX 5 5 0 -1
BITMAP
F8
F8
F8
F8
F8
ENDCHAR
STARTCHAR C0153
ENCODING 153
SWIDTH 1125 0
DWIDTH 6 0
BBX 3 5 1 -1
BITMAP
E0
40
00
E0
A0
ENDCHAR
STARTCHAR C0154
ENCODING 154
SWIDTH 1125 0
DWIDTH 6 0
BBX 5 5 0 -1
BITMAP
50
20
38
20
E0
ENDCHAR
STARTCHAR C0155
ENCODING 155
SWIDTH 1125 0
DWIDTH 6 0
BBX 3 5 1 -1
BITMAP
80
40
20
40
80
ENDCHAR
STARTCHAR C0156
ENCODING 156
SWIDTH 1125 0
DWIDTH 6 0
BBX 5 5 0 -1
BITMAP
78
A0
B8
A0
78
ENDCHAR
STARTCHAR C0157
ENCODING 157
SWIDTH 1125 0
DWIDTH 6 0
BBX 5 5 0 -1
BITMAP
F8
F8
F8
F8
F8
ENDCHAR
STARTCHAR C0158
ENCODING 158
SWIDTH 1125 0
DWIDTH 6 0
BBX 5 5 0 -1
BITMAP
50
20
E0
20
38
ENDCHAR
STARTCHAR C0159
ENCODING 159
SWIDTH 1125 0
DWIDTH 6 0
BBX 5 5 0 -1
BITMAP
50
00
88
F8
20
ENDCHAR
STARTCHAR C0160
ENCODING 160
SWIDTH 1125 0
DWIDTH 6 0
BBX 1 1 0 -1
BITMAP
00
ENDCHAR
STARTCHAR C0161
ENCODING 161
SWIDTH 1125 0
DWIDTH 6 0
BBX 1 5 2 -1
BITMAP
80
00
80
80
80
ENDCHAR
STARTCHAR C0162
ENCODING 162
SWIDTH 1125 0
DWIDTH 6 0
BBX 3 5 1 -1
BITMAP
40
E0
80
E0
40
ENDCHAR
STARTCHAR C0163
ENCODING 163
SWIDTH 1125 0
DWIDTH 6 0
BBX 5 5 0 -1
BITMAP
30
40
E0
40
F8
ENDCHAR
STARTCHAR C0164
ENCODING 164
SWIDTH 1125 0
DWIDTH 6 0
BBX 5 5 0 -1
BITMAP
88
70
50
70
88
ENDCHAR
STARTCHAR C0165
ENCODING 165
SWIDTH 1125 0
DWIDTH 6 0
BBX 5 5 0 -1
BITMAP
88
70
20
70
20
ENDCHAR
STARTCHAR C0166
ENCODING 166
SWIDTH 1125 0
DWIDTH 6 0
BBX 1 5 2 -1
BITMAP
80
80
00
80
80
ENDCHAR
STARTCHAR C0167
ENCODING 167
SWIDTH 1125 0
DWIDTH 6 0
BBX 5 5 0 -1
BITMAP
70
80
70
08
70
ENDCHAR
STARTCHAR C0168
ENCODING 168
SWIDTH 1125 0
DWIDTH 6 0
BBX 3 1 1 3
BITMAP
A0
ENDCHAR
STARTCHAR C0169
ENCODING 169
SWIDTH 1125 0
DWIDTH 6 0
BBX 3 3 1 0
BITMAP
60
80
60
ENDCHAR
STARTCHAR C0170
ENCODING 170
SWIDTH 1125 0
DWIDTH 6 0
BBX 5 5 0 -1
BITMAP
F8
F8
F8
F8
F8
ENDCHAR
STARTCHAR C0171
ENCODING 171
SWIDTH 1125 0
DWIDTH 6 0
BBX 5 3 0 0
BITMAP
48
90
48
ENDCHAR
STARTCHAR C0172
ENCODING 172
SWIDTH 1125 0
DWIDTH 6 0
BBX 4 2 1 0
BITMAP
F0
10
ENDCHAR
STARTCHAR C0173
ENCODING 173
SWIDTH 1125 0
DWIDTH 6 0
BBX 5 1 0 1
BITMAP
F8
ENDCHAR
STARTCHAR C0174
ENCODING 174
SWIDTH 1125 0
DWIDTH 6 0
BBX 3 3 1 0
BITMAP
C0
C0
A0
ENDCHAR
STARTCHAR C0175
ENCODING 175
SWIDTH 1125 0
DWIDTH 6 0
BBX 3 1 1 3
BITMAP
E0
ENDCHAR
STARTCHAR C0176
ENCODING 176
SWIDTH 1125 0
DWIDTH 6 0
BBX 3 3 1 1
BITMAP
40
A0
40
ENDCHAR
STARTCHAR C0177
ENCODING 177
SWIDTH 1125 0
DWIDTH 6 0
BBX 5 5 0 -1
BITMAP
20
F8
20
00
F8
ENDCHAR
STARTCHAR C0178
ENCODING 178
SWIDTH 1125 0
DWIDTH 6 0
BBX 5 5 0 -1
BITMAP
F8
F8
F8
F8
F8
ENDCHAR
STARTCHAR C0179
ENCODING 179
SWIDTH 1125 0
DWIDTH 6 0
BBX 5 5 0 -1
BITMAP
F8
F8
F8
F8
F8
ENDCHAR
STARTCHAR C0180
ENCODING 180
SWIDTH 1125 0
DWIDTH 6 0
BBX 2 2 1 2
BITMAP
40
80
ENDCHAR
STARTCHAR C0181
ENCODING 181
SWIDTH 1125 0
DWIDTH 6 0
BBX 5 5 0 -1
BITMAP
88
88
C8
B0
80
ENDCHAR
STARTCHAR C0182
ENCODING 182
SWIDTH 1125 0
DWIDTH 6 0
BBX 5 5 0 -1
BITMAP
78
E8
68
28
28
ENDCHAR
STARTCHAR C0183
ENCODING 183
SWIDTH 1125 0
DWIDTH 6 0
BBX 1 1 2 1
BITMAP
80
ENDCHAR
STARTCHAR C0184
ENCODING 184
SWIDTH 1125 0
DWIDTH 6 0
BBX 5 5 0 -1
BITMAP
F8
F8
F8
F8
F8
ENDCHAR
STARTCHAR C0185
ENCODING 185
SWIDTH 1125 0
DWIDTH 6 0
BBX 3 3 1 1
BITMAP
C0
40
E0
ENDCHAR
STARTCHAR C0186
ENCODING 186
SWIDTH 1125 0
DWIDTH 6 0
BBX 3 3 1 1
BITMAP
E0
A0
E0
ENDCHAR
STARTCHAR C0187
ENCODING 187
SWIDTH 1125 0
DWIDTH 6 0
BBX 5 3 0 0
BITMAP
90
48
90
ENDCHAR
STARTCHAR C0188
ENCODING 188
SWIDTH 1125 0
DWIDTH 6 0
BBX 5 5 0 -1
BITMAP
F8
F8
F8
F8
F8
ENDCHAR
STARTCHAR C0189
ENCODING 189
SWIDTH 1125 0
DWIDTH 6 0
BBX 5 5 0 -1
BITMAP
F8
F8
F8
F8
F8
ENDCHAR
STARTCHAR C0190
ENCODING 190
SWIDTH 1125 0
DWIDTH 6 0
BBX 5 5 0 -1
BITMAP
F8
F8
F8
F8
F8
ENDCHAR
STARTCHAR C0191
ENCODING 191
SWIDTH 1125 0
DWIDTH 6 0
BBX 3 5 1 -1
BITMAP
40
00
40
80
E0
ENDCHAR
STARTCHAR C0192
ENCODING 192
SWIDTH 1125 0
DWIDTH 6 0
BBX 5 5 0 -1
BITMAP
40
20
50
F8
88
ENDCHAR
STARTCHAR C0193
ENCODING 193
SWIDTH 1125 0
DWIDTH 6 0
BBX 5 5 0 -1
BITMAP
10
20
50
F8
88
ENDCHAR
STARTCHAR C0194
ENCODING 194
SWIDTH 1125 0
DWIDTH 6 0
BBX 5 5 0 -1
BITMAP
F8
F8
F8
F8
F8
ENDCHAR
STARTCHAR C0195
ENCODING 195
SWIDTH 1125 0
DWIDTH 6 0
BBX 5 5 0 -1
BITMAP
70
20
50
F8
88
ENDCHAR
STARTCHAR C0196
ENCODING 196
SWIDTH 1125 0
DWIDTH 6 0
BBX 5 5 0 -1
BITMAP
88
20
50
F8
88
ENDCHAR
STARTCHAR C0197
ENCODING 197
SWIDTH 1125 0
DWIDTH 6 0
BBX 5 5 0 -1
BITMAP
70
70
50
F8
88
ENDCHAR
STARTCHAR C0198
ENCODING 198
SWIDTH 1125 0
DWIDTH 6 0
BBX 5 5 0 -1
BITMAP
78
A0
B8
E0
B8
ENDCHAR
STARTCHAR C0199
ENCODING 199
SWIDTH 1125 0
DWIDTH 6 0
BBX 5 5 0 -1
BITMAP
78
80
80
78
20
ENDCHAR
STARTCHAR C0200
ENCODING 200
SWIDTH 1125 0
DWIDTH 6 0
BBX 4 5 1 -1
BITMAP
80
40
C0
E0
F0
ENDCHAR
STARTCHAR C0201
ENCODING 201
SWIDTH 1125 0
DWIDTH 6 0
BBX 4 5 1 -1
BITMAP
20
40
C0
E0
F0
ENDCHAR
STARTCHAR C0202
ENCODING 202
SWIDTH 1125 0
DWIDTH 6 0
BBX 5 5 0 -1
BITMAP
F8
F8
F8
F8
F8
ENDCHAR
STARTCHAR C0203
ENCODING 203
SWIDTH 1125 0
DWIDTH 6 0
BBX 4 5 1 -1
BITMAP
A0
00
C0
E0
F0
ENDCHAR
STARTCHAR C0204
ENCODING 204
SWIDTH 1125 0
DWIDTH 6 0
BBX 5 5 0 -1
BITMAP
40
20
F8
20
F8
ENDCHAR
STARTCHAR C0205
ENCODING 205
SWIDTH 1125 0
DWIDTH 6 0
BBX 5 5 0 -1
BITMAP
10
20
F8
20
F8
ENDCHAR
STARTCHAR C0206
ENCODING 206
SWIDTH 1125 0
DWIDTH 6 0
BBX 5 5 0 -1
BITMAP
F8
F8
F8
F8
F8
ENDCHAR
STARTCHAR C0207
ENCODING 207
SWIDTH 1125 0
DWIDTH 6 0
BBX 5 5 0 -1
BITMAP
50
00
F8
20
F8
ENDCHAR
STARTCHAR C0208
ENCODING 208
SWIDTH 1125 0
DWIDTH 6 0
BBX 5 5 0 -1
BITMAP
70
48
E8
48
70
ENDCHAR
STARTCHAR C0209
ENCODING 209
SWIDTH 1125 0
DWIDTH 6 0
BBX 5 5 0 -1
BITMAP
70
00
C8
A8
98
ENDCHAR
STARTCHAR C0210
ENCODING 210
SWIDTH 1125 0
DWIDTH 6 0
BBX 5 5 0 -1
BITMAP
40
20
70
88
70
ENDCHAR
STARTCHAR C0211
ENCODING 211
SWIDTH 1125 0
DWIDTH 6 0
BBX 5 5 0 -1
BITMAP
10
20
70
88
70
ENDCHAR
STARTCHAR C0212
ENCODING 212
SWIDTH 1125 0
DWIDTH 6 0
BBX 5 5 0 -1
BITMAP
F8
F8
F8
F8
F8
ENDCHAR
STARTCHAR C0213
ENCODING 213
SWIDTH 1125 0
DWIDTH 6 0
BBX 5 5 0 -1
BITMAP
70
00
70
88
70
ENDCHAR
STARTCHAR C0214
ENCODING 214
SWIDTH 1125 0
DWIDTH 6 0
BBX 5 5 0 -1
BITMAP
50
00
70
88
70
ENDCHAR
STARTCHAR C0215
ENCODING 215
SWIDTH 1125 0
DWIDTH 6 0
BBX 3 3 1 0
BITMAP
A0
40
A0
ENDCHAR
STARTCHAR C0216
ENCODING 216
SWIDTH 1125 0
DWIDTH 6 0
BBX 5 5 0 -1
BITMAP
70
98
A8
C8
70
ENDCHAR
STARTCHAR C0217
ENCODING 217
SWIDTH 1125 0
DWIDTH 6 0
BBX 5 5 0 -1
BITMAP
40
20
88
88
70
ENDCHAR
STARTCHAR C0218
ENCODING 218
SWIDTH 1125 0
DWIDTH 6 0
BBX 5 5 0 -1
BITMAP
10
20
88
88
70
ENDCHAR
STARTCHAR C0219
ENCODING 219
SWIDTH 1125 0
DWIDTH 6 0
BBX 5 5 0 -1
BITMAP
F8
F8
F8
F8
F8
ENDCHAR
STARTCHAR C0220
ENCODING 220
SWIDTH 1125 0
DWIDTH 6 0
BBX 5 5 0 -1
BITMAP
50
00
88
88
70
ENDCHAR
STARTCHAR C0221
ENCODING 221
SWIDTH 1125 0
DWIDTH 6 0
BBX 5 5 0 -1
BITMAP
F8
F8
F8
F8
F8
ENDCHAR
STARTCHAR C0222
ENCODING 222
SWIDTH 1125 0
DWIDTH 6 0
BBX 5 5 0 -1
BITMAP
80
F0
88
F0
80
ENDCHAR
STARTCHAR C0223
ENCODING 223
SWIDTH 1125 0
DWIDTH 6 0
BBX 5 5 0 -1
BITMAP
70
88
90
88
B0
ENDCHAR
STARTCHAR C0224
ENCODING 224
SWIDTH 1125 0
DWIDTH 6 0
BBX 5 5 0 -1
BITMAP
40
20
50
F8
88
ENDCHAR
STARTCHAR C0225
ENCODING 225
SWIDTH 1125 0
DWIDTH 6 0
BBX 5 5 0 -1
BITMAP
10
20
50
F8
88
ENDCHAR
STARTCHAR C0226
ENCODING 226
SWIDTH 1125 0
DWIDTH 6 0
BBX 5 5 0 -1
BITMAP
F8
F8
F8
F8
F8
ENDCHAR
STARTCHAR C0227
ENCODING 227
SWIDTH 1125 0
DWIDTH 6 0
BBX 5 5 0 -1
BITMAP
70
20
50
F8
88
ENDCHAR
STARTCHAR C0228
ENCODING 228
SWIDTH 1125 0
DWIDTH 6 0
BBX 5 5 0 -1
BITMAP
88
20
50
F8
88
ENDCHAR
STARTCHAR C0229
ENCODING 229
SWIDTH 1125 0
DWIDTH 6 0
BBX 5 5 0 -1
BITMAP
70
70
50
F8
88
ENDCHAR
STARTCHAR C0230
ENCODING 230
SWIDTH 1125 0
DWIDTH 6 0
BBX 5 5 0 -1
BITMAP
78
A0
B8
E0
B8
ENDCHAR
STARTCHAR C0231
ENCODING 231
SWIDTH 1125 0
DWIDTH 6 0
BBX 5 5 0 -1
BITMAP
78
80
80
78
20
ENDCHAR
STARTCHAR C0232
ENCODING 232
SWIDTH 1125 0
DWIDTH 6 0
BBX 4 5 1 -1
BITMAP
80
40
C0
E0
F0
ENDCHAR
STARTCHAR C0233
ENCODING 233
SWIDTH 1125 0
DWIDTH 6 0
BBX 4 5 1 -1
BITMAP
20
40
C0
E0
F0
ENDCHAR
STARTCHAR C0234
ENCODING 234
SWIDTH 1125 0
DWIDTH 6 0
BBX 5 5 0 -1
BITMAP
F8
F8
F8
F8
F8
ENDCHAR
STARTCHAR C0235
ENCODING 235
SWIDTH 1125 0
DWIDTH 6 0
BBX 4 5 1 -1
BITMAP
A0
00
C0
E0
F0
ENDCHAR
STARTCHAR C0236
ENCODING 236
SWIDTH 1125 0
DWIDTH 6 0
BBX 5 5 0 -1
BITMAP
40
20
F8
20
F8
ENDCHAR
STARTCHAR C0237
ENCODING 237
SWIDTH 1125 0
DWIDTH 6 0
BBX 5 5 0 -1
BITMAP
10
20
F8
20
F8
ENDCHAR
STARTCHAR C0238
ENCODING 238
SWIDTH 1125 0
DWIDTH 6 0
BBX 5 5 0 -1
BITMAP
F8
F8
F8
F8
F8
ENDCHAR
STARTCHAR C0239
ENCODING 239
SWIDTH 1125 0
DWIDTH 6 0
BBX 5 5 0 -1
BITMAP
50
00
F8
20
F8
ENDCHAR
STARTCHAR C0240
ENCODING 240
SWIDTH 1125 0
DWIDTH 6 0
BBX 5 5 0 -1
BITMAP
70
48
E8
48
70
ENDCHAR
STARTCHAR C0241
ENCODING 241
SWIDTH 1125 0
DWIDTH 6 0
BBX 5 5 0 -1
BITMAP
70
00
C8
A8
98
ENDCHAR
STARTCHAR C0242
ENCODING 242
SWIDTH 1125 0
DWIDTH 6 0
BBX 5 5 0 -1
BITMAP
40
20
70
88
70
ENDCHAR
STARTCHAR C0243
ENCODING 243
SWIDTH 1125 0
DWIDTH 6 0
BBX 5 5 0 -1
BITMAP
10
20
70
88
70
ENDCHAR
STARTCHAR C0244
ENCODING 244
SWIDTH 1125 0
DWIDTH 6 0
BBX 5 5 0 -1
BITMAP
F8
F8
F8
F8
F8
ENDCHAR
STARTCHAR C0245
ENCODING 245
SWIDTH 1125 0
DWIDTH 6 0
BBX 5 5 0 -1
BITMAP
70
00
70
88
70
ENDCHAR
STARTCHAR C0246
ENCODING 246
SWIDTH 1125 0
DWIDTH 6 0
BBX 5 5 0 -1
BITMAP
50
00
70
88
70
ENDCHAR
STARTCHAR C0247
ENCODING 247
SWIDTH 1125 0
DWIDTH 6 0
BBX 5 5 0 -1
BITMAP
20
00
F8
00
20
ENDCHAR
STARTCHAR C0248
ENCODING 248
SWIDTH 1125 0
DWIDTH 6 0
BBX 5 5 0 -1
BITMAP
70
98
A8
C8
70
ENDCHAR
STARTCHAR C0249
ENCODING 249
SWIDTH 1125 0
DWIDTH 6 0
BBX 5 5 0 -1
BITMAP
40
20
88
88
70
ENDCHAR
STARTCHAR C0250
ENCODING 250
SWIDTH 1125 0
DWIDTH 6 0
BBX 5 5 0 -1
BITMAP
10
20
88
88
70
ENDCHAR
STARTCHAR C0251
ENCODING 251
SWIDTH 1125 0
DWIDTH 6 0
BBX 5 5 0 -1
BITMAP
F8
F8
F8
F8
F8
ENDCHAR
STARTCHAR C0252
ENCODING 252
SWIDTH 1125 0
DWIDTH 6 0
BBX 5 5 0 -1
BITMAP
50
00
88
88
70
ENDCHAR
STARTCHAR C0253
ENCODING 253
SWIDTH 1125 0
DWIDTH 6 0
BBX 5 5 0 -1
BITMAP
F8
F8
F8
F8
F8
ENDCHAR
STARTCHAR C0254
ENCODING 254
SWIDTH 1125 0
DWIDTH 6 0
BBX 5 5 0 -1
BITMAP
80
F0
88
F0
80
ENDCHAR
STARTCHAR C0255
ENCODING 255
SWIDTH 1125 0
DWIDTH 6 0
BBX 5 5 0 -1
BITMAP
50
00
88
F8
20
ENDCHAR
ENDFONT
